<?xml version="1.0" standalone="no"?>
<!DOCTYPE svg PUBLIC "-//W3C//DTD SVG 20010904//EN"
 "http://www.w3.org/TR/2001/REC-SVG-20010904/DTD/svg10.dtd">
<svg version="1.0" xmlns="http://www.w3.org/2000/svg"
 width="420.000000pt" height="420.000000pt" viewBox="0 0 420.000000 420.000000"
 preserveAspectRatio="xMidYMid meet">

<g transform="translate(0.000000,420.000000) scale(0.100000,-0.100000)"
fill="#000000" stroke="none">
<path d="M1625 3411 c-140 -40 -305 -146 -467 -300 -193 -183 -253 -301 -293
-576 -8 -60 -21 -113 -28 -117 -24 -16 -72 2 -104 39 l-33 36 0 -27 c0 -41 24
-90 70 -139 l41 -45 -24 -64 c-14 -35 -57 -125 -96 -199 -39 -75 -83 -169 -97
-210 -33 -94 -46 -217 -33 -317 5 -42 14 -126 19 -187 17 -182 95 -393 180
-485 l41 -45 -7 155 c-3 85 -12 252 -19 370 -11 194 -11 218 4 250 26 56 44
60 264 60 l197 0 0 38 c0 20 -4 52 -9 70 -7 22 -4 78 10 184 19 152 20 153 73
248 30 52 70 127 89 166 85 169 235 325 373 386 40 17 59 19 133 14 47 -4 118
-3 156 2 39 5 117 6 175 2 99 -7 109 -9 177 -49 137 -80 196 -147 304 -346 41
-76 74 -119 140 -187 65 -65 91 -99 103 -135 26 -75 30 -168 12 -253 -9 -41
-16 -90 -16 -107 l0 -33 193 0 c133 0 200 -4 217 -13 36 -18 61 -73 55 -122
-3 -22 -10 -143 -16 -270 -6 -126 -14 -287 -18 -358 -3 -70 -4 -127 -1 -127
12 0 93 131 119 195 79 190 97 523 41 777 -26 118 -78 270 -131 384 -22 49
-49 111 -60 138 l-18 50 52 55 c49 53 97 135 85 147 -3 3 -26 -9 -50 -26 -33
-24 -57 -32 -93 -33 l-48 -2 -62 191 c-136 417 -279 595 -602 746 -122 57
-209 73 -339 61 -95 -9 -108 -13 -134 -38 -16 -16 -35 -44 -41 -63 l-11 -34
-19 31 c-24 40 -82 75 -173 106 -89 30 -191 32 -281 6z"/>
<path d="M1494 2203 c-88 -52 -97 -79 -16 -50 58 21 140 22 251 2 61 -11 89
-12 103 -4 17 9 18 13 7 24 -27 25 -86 37 -199 42 -99 4 -119 2 -146 -14z"/>
<path d="M2437 2206 c-68 -15 -96 -36 -73 -55 11 -9 33 -9 103 3 115 21 197
20 255 -1 81 -29 72 0 -16 50 -37 21 -178 22 -269 3z"/>
<path d="M1565 1980 c-85 -22 -165 -85 -165 -131 0 -16 5 -14 31 16 32 36 86
71 96 62 2 -3 0 -14 -6 -25 -27 -52 0 -145 55 -185 13 -10 48 -20 77 -22 46
-4 48 -3 14 4 -23 5 -53 22 -74 44 -31 30 -36 43 -39 89 l-3 53 8 -49 c19
-128 173 -129 206 -1 12 47 13 49 20 22 4 -15 5 -45 2 -65 -6 -36 -6 -36 8
-12 8 14 15 43 15 65 l1 40 39 -42 c22 -23 40 -38 40 -32 0 23 -32 69 -76 108
-69 60 -163 84 -249 61z m65 -55 c25 -30 -16 -69 -49 -48 -27 17 -9 62 25 63
6 0 17 -7 24 -15z"/>
<path d="M2479 1975 c-51 -16 -132 -82 -154 -126 -25 -48 -17 -51 23 -8 l37
42 6 -51 c11 -86 72 -143 151 -141 l33 1 -30 7 c-48 12 -75 30 -95 64 -29 46
-25 50 14 11 48 -48 95 -47 143 1 33 33 35 39 31 85 -5 46 -4 49 9 29 21 -28
28 -92 14 -118 -7 -11 -9 -21 -7 -21 3 0 12 13 21 30 18 34 20 93 4 122 -6 11
-8 22 -6 25 10 9 64 -26 96 -62 26 -30 31 -32 31 -16 0 31 -56 88 -109 112
-61 27 -153 33 -212 14z m31 -76 c0 -22 -36 -35 -55 -19 -22 18 -18 39 8 49
26 10 47 -3 47 -30z"/>
<path d="M849 93 c-3 -36 2 -48 27 -71 l25 -22 1193 0 c1192 0 1193 0 1220 21
14 11 26 29 26 41 0 19 0 19 -34 -2 -34 -21 -37 -21 -803 -20 -422 1 -939 1
-1148 1 -209 0 -398 4 -420 9 -22 5 -50 20 -62 35 -20 22 -23 23 -24 8z"/>
</g>
</svg>
